<svg width="33" height="43" viewBox="0 0 33 43" fill="none" xmlns="http://www.w3.org/2000/svg">
<path d="M0.990833 36.4748C1.85351 39.9091 4.95306 42.308 8.49398 42.2818H25.1457C28.6871 42.3079 31.7867 39.9083 32.6489 36.4734C34.224 30.0175 30.2461 21.9049 25.739 16.0915C26.5803 15.804 27.1944 15.076 27.3359 14.1983C28.6458 14.3956 29.7524 15.2734 30.2426 16.504C30.3876 16.8647 30.7975 17.0396 31.1582 16.8946C31.519 16.7496 31.6938 16.3396 31.5488 15.9789C30.9067 14.3601 29.4816 13.1819 27.7709 12.8555C29.2372 11.8828 30.14 10.2586 30.1919 8.49973C30.1919 8.11103 29.8768 7.79593 29.4881 7.79593C29.0994 7.79593 28.7843 8.11103 28.7843 8.49973C28.7019 9.96194 27.8699 11.2778 26.5843 11.9793C26.1318 11.5538 25.5345 11.3163 24.9135 11.3149H24.4363L26.6124 7.89868C27.1641 7.03088 27.1988 5.93132 26.7028 5.03051C26.2068 4.12971 25.2591 3.57101 24.2308 3.57317H23.4137C23.633 2.73043 23.4494 1.83362 22.9165 1.14491C22.3836 0.456202 21.5615 0.0533783 20.6907 0.0542005H12.949C12.0782 0.0533783 11.2561 0.456202 10.7232 1.14491C10.1903 1.83362 10.0067 2.73043 10.226 3.57317H9.40891C8.38049 3.5711 7.43277 4.13 6.93691 5.03099C6.44105 5.93198 6.47597 7.03166 7.02798 7.89939L9.2034 11.3149H8.72623C7.52856 11.3128 6.50375 12.1743 6.30003 13.3545C6.09631 14.5347 6.77301 15.6899 7.90209 16.0894C3.39429 21.9042 -0.584961 30.0168 0.990833 36.4748ZM8.16953 5.7127C8.41539 5.25818 8.89217 4.97661 9.40891 4.98076H10.7792L12.6513 9.47448C12.7481 9.70656 12.9614 9.86937 13.2107 9.90157C13.4601 9.93377 13.7078 9.83049 13.8603 9.63061C14.0129 9.43073 14.0473 9.16464 13.9505 8.93256L11.6498 3.41059C11.4689 2.9762 11.517 2.48012 11.778 2.08859C12.039 1.69705 12.4784 1.46185 12.949 1.46179H20.6907C21.1613 1.46185 21.6007 1.69705 21.8617 2.08859C22.1228 2.48012 22.1709 2.9762 21.9899 3.41059L19.6892 8.93256C19.5396 9.29132 19.7091 9.70347 20.0679 9.85312C20.4266 10.0028 20.8388 9.83324 20.9884 9.47448L22.8605 4.98076H24.2308C24.746 4.97761 25.2217 5.25615 25.4711 5.70695C25.7205 6.15774 25.7037 6.70876 25.4272 7.14351L22.7676 11.3149H10.8735L8.21668 7.14422C7.93725 6.71254 7.91911 6.16183 8.16953 5.7127ZM9.57712 16.2415H11.8933C12.282 16.2415 12.5971 15.9264 12.5971 15.5377C12.5971 15.149 12.282 14.8339 11.8933 14.8339H8.72623C8.14319 14.8339 7.67054 14.3612 7.67054 13.7782C7.67054 13.1951 8.14319 12.7225 8.72623 12.7225H24.9135C25.4965 12.7225 25.9692 13.1951 25.9692 13.7782C25.9692 14.3612 25.4965 14.8339 24.9135 14.8339H16.1161C15.7274 14.8339 15.4123 15.149 15.4123 15.5377C15.4123 15.9264 15.7274 16.2415 16.1161 16.2415H24.0605C28.5866 21.8282 32.8037 29.9042 31.2821 36.1384C30.5731 38.943 28.0384 40.8992 25.1457 40.8742H8.49398C5.60171 40.8998 3.06709 38.944 2.3583 36.1398C0.836702 29.9042 5.05313 21.8282 9.57923 16.2415H9.57712Z" fill="#C8CCDA"/>
<path d="M6.26239 28.9095H8.37377V34.5399C8.37377 34.9286 8.68887 35.2437 9.07756 35.2437C9.46626 35.2437 9.78136 34.9286 9.78136 34.5399V28.9095H11.8927C12.2814 28.9095 12.5965 28.5944 12.5965 28.2057C12.5965 27.8171 12.2814 27.502 11.8927 27.502H6.26239C5.87369 27.502 5.55859 27.8171 5.55859 28.2057C5.55859 28.5944 5.87369 28.9095 6.26239 28.9095Z" fill="#C8CCDA"/>
<path d="M22.0594 35.1255C22.2147 35.2292 22.4048 35.2668 22.5879 35.2303C22.771 35.1937 22.932 35.0859 23.0356 34.9306L24.5614 32.6397L26.0873 34.9285C26.303 35.2519 26.74 35.3392 27.0634 35.1234C27.3868 34.9077 27.4741 34.4707 27.2584 34.1473L25.406 31.3729L27.257 28.5964C27.3965 28.3872 27.4139 28.1195 27.3025 27.894C27.1911 27.6686 26.9678 27.5197 26.7169 27.5034C26.466 27.4872 26.2254 27.606 26.0858 27.8152L24.5614 30.1061L23.0356 27.8173C22.8199 27.494 22.3828 27.4067 22.0594 27.6224C21.7361 27.8381 21.6488 28.2752 21.8645 28.5986L23.7169 31.3729L21.8659 34.1494C21.6498 34.4724 21.7365 34.9094 22.0594 35.1255Z" fill="#C8CCDA"/>
<path d="M13.7189 35.1834C13.8895 35.2592 14.0833 35.2641 14.2575 35.1971C14.4317 35.13 14.5722 34.9965 14.6479 34.8259L15.4003 33.1326H18.2394L18.9918 34.8259C19.0939 35.0557 19.3108 35.2136 19.5609 35.2401C19.8109 35.2666 20.0561 35.1577 20.2041 34.9544C20.3521 34.751 20.3804 34.4842 20.2783 34.2544L19.3493 32.1648L19.3401 32.1444L17.4631 27.9217C17.3502 27.6674 17.0981 27.5034 16.8199 27.5034C16.5416 27.5034 16.2895 27.6674 16.1766 27.9217L14.2996 32.1444L14.2904 32.1648L13.3614 34.2544C13.2856 34.425 13.2807 34.6187 13.3477 34.793C13.4148 34.9672 13.5483 35.1077 13.7189 35.1834ZM16.8199 29.9387L17.6137 31.725H16.026L16.8199 29.9387Z" fill="#C8CCDA"/>
</svg>
