<svg width="42" height="45" viewBox="0 0 42 45" fill="none" xmlns="http://www.w3.org/2000/svg">
<path d="M41.634 10.1491L21.5604 0.458417C21.3824 0.372585 21.1752 0.372585 20.9973 0.458417L0.923654 10.1491C0.699835 10.2571 0.557617 10.4838 0.557617 10.7323V34.2669C0.557617 34.5154 0.699835 34.7421 0.923654 34.8501L20.9972 44.5408C21.0862 44.5837 21.1825 44.6052 21.2788 44.6052C21.3751 44.6052 21.4714 44.5837 21.5604 44.5408L41.634 34.8501C41.8578 34.7421 42 34.5154 42 34.2669V10.7324C42 10.4837 41.8577 10.2572 41.634 10.1491ZM21.2788 1.76083L39.8628 10.7323L34.4757 13.333C34.4416 13.307 34.4056 13.283 34.366 13.2639L15.9083 4.35349L21.2788 1.76083ZM14.4457 5.08573L33.0026 14.0442L29.2019 15.879L10.6527 6.92421L14.4457 5.08573ZM33.4368 15.2728V22.0552L29.8867 23.7691V16.9866L33.4368 15.2728ZM40.7048 33.8605L21.9265 42.9257V20.8295L26.4057 18.6671C26.7278 18.5116 26.8628 18.1245 26.7073 17.8023C26.5518 17.4803 26.1647 17.3451 25.8425 17.5007L21.2788 19.7039L19.4831 18.837C19.1609 18.6813 18.7738 18.8165 18.6183 19.1386C18.4628 19.4607 18.5978 19.8479 18.9199 20.0034L20.6312 20.8295V42.9257L1.85287 33.8604V11.7641L16.1524 18.6674C16.2432 18.7112 16.3391 18.732 16.4335 18.732C16.6742 18.732 16.9055 18.5971 17.0171 18.3657C17.1726 18.0437 17.0376 17.6565 16.7155 17.5009L2.69486 10.7323L9.12836 7.62649L28.5825 17.0182C28.5853 17.0221 28.5885 17.0257 28.5915 17.0296V24.801C28.5915 25.0238 28.706 25.231 28.8948 25.3495C28.9996 25.4153 29.1192 25.4486 29.2392 25.4486C29.3352 25.4486 29.4315 25.4273 29.5207 25.3842L34.366 23.045C34.5898 22.937 34.7321 22.7104 34.7321 22.4618V14.6476L40.7048 11.7642V33.8605Z" fill="#C9CCDA"/>
<path d="M7.19648 31.3495L4.25065 29.9274C3.92839 29.7717 3.54137 29.907 3.38586 30.2291C3.23034 30.5511 3.36539 30.9383 3.68748 31.0938L6.6333 32.5159C6.72406 32.5598 6.81999 32.5805 6.91437 32.5805C7.15512 32.5805 7.38636 32.4457 7.49801 32.2143C7.65361 31.8922 7.51856 31.5051 7.19648 31.3495Z" fill="#C9CCDA"/>
<path d="M9.91033 29.5836L4.25743 26.8546C3.93526 26.6991 3.54815 26.8341 3.39264 27.1563C3.23721 27.4784 3.37226 27.8656 3.69434 28.0211L9.34724 30.7501C9.43799 30.7939 9.53393 30.8147 9.62831 30.8147C9.86905 30.8147 10.1003 30.6798 10.2119 30.4485C10.3675 30.1262 10.2324 29.739 9.91033 29.5836Z" fill="#C9CCDA"/>
</svg>
