<svg width="37" height="21" viewBox="0 0 37 21" fill="none" xmlns="http://www.w3.org/2000/svg">
<path fill-rule="evenodd" clip-rule="evenodd" d="M36.1513 1.422C36.4072 0.603 36.1513 0 34.9257 0H30.8789C29.8491 0 29.3743 0.5205 29.1168 1.095C29.1168 1.095 27.0588 5.889 24.1435 9.003C23.2001 9.906 22.7715 10.1925 22.2566 10.1925C21.9991 10.1925 21.6122 9.906 21.6122 9.0855V1.422C21.6122 0.438 21.3285 0 20.4714 0H14.1075C13.4646 0 13.0777 0.456 13.0777 0.8895C13.0777 1.821 14.5361 2.037 14.6856 4.659V10.356C14.6856 11.6055 14.4497 11.832 13.9348 11.832C12.5628 11.832 9.22514 7.0155 7.24414 1.5045C6.86027 0.432 6.47178 0 5.43734 0H1.38747C0.231245 0 0 0.5205 0 1.095C0 2.118 1.37205 7.2 6.39007 13.9215C9.73542 18.5115 14.4451 21 18.7355 21C21.3085 21 21.626 20.448 21.626 19.4955V16.026C21.626 14.9205 21.8696 14.7 22.6851 14.7C23.2864 14.7 24.3147 14.988 26.7165 17.2005C29.4606 19.824 29.9123 21 31.457 21H35.5038C36.6601 21 37.2397 20.448 36.9067 19.356C36.5398 18.27 35.2294 16.6935 33.492 14.823C32.5485 13.758 31.1333 12.6105 30.7032 12.036C30.1035 11.2995 30.2746 10.971 30.7032 10.3155C30.7032 10.3155 35.6364 3.6765 36.1498 1.422H36.1513Z" fill="#020A0A"/>
</svg>
