<?xml version="1.0" encoding="utf-8"?><svg viewBox="0 0 42 45" xmlns="http://www.w3.org/2000/svg" xmlns:xlink="http://www.w3.org/1999/xlink"><style>:root>svg{display:none}:root>svg:target{display:block}</style><svg viewBox="0 0 42 45" id="checkout-service-shipping" xmlns="http://www.w3.org/2000/svg"><path d="M41.634 10.15L21.56.457a.648.648 0 00-.563 0L.924 10.15a.648.648 0 00-.366.583v23.535c0 .248.142.475.366.583l20.073 9.69a.648.648 0 00.563 0l20.074-9.69a.648.648 0 00.366-.583V10.732a.648.648 0 00-.366-.583zM21.279 1.76l18.584 8.972-5.387 2.601a.64.64 0 00-.11-.07l-18.458-8.91 5.37-2.592zm-6.833 3.326l18.557 8.958-3.801 1.835-18.55-8.955 3.794-1.838zm18.99 10.187v6.782l-3.55 1.714v-6.782l3.55-1.714zm7.269 18.588l-18.778 9.065V20.829l4.479-2.162a.648.648 0 10-.563-1.166l-4.564 2.203-1.796-.867a.647.647 0 10-.563 1.166l1.711.826v22.097L1.853 33.86V11.764l14.3 6.903a.646.646 0 00.864-.301.648.648 0 00-.302-.865l-14.02-6.769 6.433-3.106 19.454 9.392.01.012v7.77a.648.648 0 00.929.583l4.845-2.339a.648.648 0 00.366-.583v-7.814l5.973-2.884V33.86z"/><path d="M7.196 31.35l-2.945-1.423a.647.647 0 10-.564 1.167l2.946 1.422a.644.644 0 00.865-.302.648.648 0 00-.302-.864zm2.714-1.766l-5.653-2.73a.648.648 0 10-.563 1.167l5.653 2.73a.645.645 0 00.865-.303.648.648 0 00-.302-.864z"/></svg><svg viewBox="0 0 33 43" id="checkout-service-tax" xmlns="http://www.w3.org/2000/svg"><path d="M.99 36.475a7.678 7.678 0 007.504 5.807h16.652a7.678 7.678 0 007.503-5.809c1.575-6.456-2.403-14.568-6.91-20.381a2.405 2.405 0 001.597-1.894 3.726 3.726 0 012.907 2.306.704.704 0 101.306-.525 5.09 5.09 0 00-3.778-3.123A5.419 5.419 0 0030.19 8.5a.704.704 0 10-1.407 0 4.235 4.235 0 01-2.2 3.48 2.447 2.447 0 00-1.67-.665h-.478l2.176-3.416a2.815 2.815 0 00-2.381-4.326h-.817A2.811 2.811 0 0020.69.054h-7.742a2.811 2.811 0 00-2.723 3.52h-.817a2.815 2.815 0 00-2.381 4.325l2.175 3.416h-.477a2.458 2.458 0 00-.824 4.774C3.394 21.904-.585 30.017.991 36.475zM8.17 5.713a1.396 1.396 0 011.239-.732h1.37l1.872 4.493a.704.704 0 001.3-.541L11.65 3.41a1.408 1.408 0 011.299-1.95h7.742a1.407 1.407 0 011.299 1.95l-2.3 5.522a.704.704 0 001.298.541L22.86 4.98h1.37a1.408 1.408 0 011.197 2.163l-2.66 4.17H10.875l-2.657-4.17a1.39 1.39 0 01-.047-1.431zM9.577 16.24h2.316a.704.704 0 100-1.407H8.726a1.056 1.056 0 010-2.111h16.187a1.056 1.056 0 110 2.11h-8.797a.704.704 0 100 1.408h7.945c4.526 5.587 8.743 13.663 7.221 19.897a6.274 6.274 0 01-6.136 4.736H8.494a6.271 6.271 0 01-6.136-4.734C.837 29.904 5.053 21.828 9.58 16.24h-.002z"/><path d="M6.262 28.91h2.112v5.63a.704.704 0 101.407 0v-5.63h2.112a.704.704 0 100-1.408h-5.63a.704.704 0 100 1.408zm15.798 6.216a.704.704 0 00.976-.195l1.525-2.291 1.526 2.288a.704.704 0 101.171-.78l-1.852-2.775 1.851-2.777a.704.704 0 00-1.171-.78l-1.525 2.29-1.525-2.289a.704.704 0 00-1.172.782l1.853 2.774-1.851 2.776a.704.704 0 00.193.977zm-8.341.057a.704.704 0 00.929-.357l.752-1.693h2.84l.752 1.693a.704.704 0 001.286-.572l-.929-2.09-.009-.02-1.877-4.222a.704.704 0 00-1.286 0L14.3 32.144l-.01.02-.929 2.09a.704.704 0 00.358.93zm3.1-5.244l.795 1.786h-1.588l.794-1.786z"/></svg><svg viewBox="0 0 30 31" id="custome" xmlns="http://www.w3.org/2000/svg"><path d="M4.394 0H.88A.879.879 0 000 .88v3.574a.879.879 0 101.758 0V1.758h2.637a.879.879 0 100-1.758zm24.727 0h-3.515a.879.879 0 000 1.758h2.636v2.695a.879.879 0 101.758 0V.88a.879.879 0 00-.879-.88zM4.395 28.242H1.758v-2.695a.879.879 0 00-1.758 0v3.574c0 .486.393.879.879.879h3.516a.879.879 0 100-1.758zm24.726-3.574a.879.879 0 00-.879.879v2.695h-2.637a.879.879 0 000 1.758h3.516a.879.879 0 00.879-.879v-3.574a.879.879 0 00-.879-.88zM27.679 7.21L15.438.118a.879.879 0 00-.882 0L2.311 7.21a.882.882 0 00-.439.76v14.068c0 .315.172.61.447.765l12.238 7.087a.893.893 0 00.44.118.89.89 0 00.44-.118l12.233-7.087.006-.004c.283-.204.436-.376.44-.75V7.975l.001-.006a.881.881 0 00-.438-.76zm-13.56 20.395L4.515 22.04l7.403-4.245a.879.879 0 10-.875-1.524L3.63 20.52V9.49l10.488 6.023v12.092zm.878-13.614L4.515 7.968l10.482-6.073L25.48 7.968 14.997 13.99zm11.368 6.53l-7.415-4.25a.879.879 0 00-.874 1.525l7.402 4.245-9.602 5.564V15.513l10.489-6.024V20.52z"/></svg></svg>